Hebrik-LightItalic.ufo
<glyph name="onequarter" format="1">
  <advance width="729"/>
  <unicode hex="00BC"/>
  <outline>
    <contour>
      <point x="262" y="678" type="line" smooth="yes"/>
      <point x="265" y="691"/>
      <point x="258" y="700"/>
      <point x="245" y="700" type="curve" smooth="yes"/>
      <point x="231" y="700" type="line" smooth="yes"/>
      <point x="221" y="700"/>
      <point x="214" y="698"/>
      <point x="206" y="693" type="curve" smooth="yes"/>
      <point x="93" y="620" type="line" smooth="yes"/>
      <point x="81" y="612"/>
      <point x="79" y="599"/>
      <point x="83" y="588" type="curve" smooth="yes"/>
      <point x="88" y="574" type="line" smooth="yes"/>
      <point x="92" y="562"/>
      <point x="107" y="562"/>
      <point x="118" y="569" type="curve" smooth="yes"/>
      <point x="187" y="613" type="line"/>
      <point x="136" y="372" type="line" smooth="yes"/>
      <point x="133" y="359"/>
      <point x="140" y="350"/>
      <point x="153" y="350" type="curve" smooth="yes"/>
      <point x="171" y="350" type="line" smooth="yes"/>
      <point x="184" y="350"/>
      <point x="194" y="359"/>
      <point x="197" y="372" type="curve" smooth="yes"/>
    </contour>
    <contour>
      <point x="685" y="669" type="line" smooth="yes"/>
      <point x="697" y="681"/>
      <point x="694" y="700"/>
      <point x="675" y="700" type="curve" smooth="yes"/>
      <point x="650" y="700" type="line" smooth="yes"/>
      <point x="632" y="700"/>
      <point x="625" y="693"/>
      <point x="613" y="681" type="curve" smooth="yes"/>
      <point x="-18" y="31" type="line"/>
      <point x="-30" y="19"/>
      <point x="-27" y="0"/>
      <point x="-8" y="0" type="curve" smooth="yes"/>
      <point x="17" y="0" type="line"/>
      <point x="35" y="0"/>
      <point x="42" y="7"/>
      <point x="54" y="19" type="curve"/>
    </contour>
    <contour>
      <point x="357" y="138" type="line" smooth="yes"/>
      <point x="342" y="122"/>
      <point x="339" y="113"/>
      <point x="338" y="108" type="curve" smooth="yes"/>
      <point x="336" y="95" type="line" smooth="yes"/>
      <point x="334" y="82"/>
      <point x="340" y="73"/>
      <point x="353" y="73" type="curve" smooth="yes"/>
      <point x="500" y="73" type="line"/>
      <point x="489" y="20" type="line" smooth="yes"/>
      <point x="486" y="7"/>
      <point x="493" y="-2"/>
      <point x="506" y="-2" type="curve" smooth="yes"/>
      <point x="523" y="-2" type="line" smooth="yes"/>
      <point x="536" y="-2"/>
      <point x="547" y="7"/>
      <point x="550" y="20" type="curve" smooth="yes"/>
      <point x="561" y="73" type="line"/>
      <point x="596" y="73" type="line" smooth="yes"/>
      <point x="609" y="73"/>
      <point x="620" y="82"/>
      <point x="623" y="95" type="curve" smooth="yes"/>
      <point x="626" y="107" type="line" smooth="yes"/>
      <point x="629" y="120"/>
      <point x="621" y="129"/>
      <point x="608" y="129" type="curve" smooth="yes"/>
      <point x="573" y="129" type="line"/>
      <point x="615" y="326" type="line" smooth="yes"/>
      <point x="618" y="339"/>
      <point x="611" y="348"/>
      <point x="598" y="348" type="curve" smooth="yes"/>
      <point x="572" y="348" type="line" smooth="yes"/>
      <point x="563" y="348"/>
      <point x="548" y="344"/>
      <point x="535" y="330" type="curve" smooth="yes"/>
    </contour>
    <contour>
      <point x="540" y="257" type="line"/>
      <point x="512" y="129" type="line"/>
      <point x="421" y="129" type="line"/>
    </contour>
  </outline>
</glyph>
<glyph name="threequarters" format="1">
  <advance width="812"/>
  <unicode hex="00BE"/>
  <outline>
    <contour>
      <point x="768" y="669" type="line" smooth="yes"/>
      <point x="780" y="681"/>
      <point x="777" y="700"/>
      <point x="758" y="700" type="curve" smooth="yes"/>
      <point x="733" y="700" type="line" smooth="yes"/>
      <point x="715" y="700"/>
      <point x="708" y="693"/>
      <point x="696" y="681" type="curve" smooth="yes"/>
      <point x="65" y="31" type="line"/>
      <point x="53" y="19"/>
      <point x="56" y="0"/>
      <point x="75" y="0" type="curve" smooth="yes"/>
      <point x="100" y="0" type="line"/>
      <point x="118" y="0"/>
      <point x="125" y="7"/>
      <point x="137" y="19" type="curve"/>
    </contour>
    <contour>
      <point x="440" y="138" type="line" smooth="yes"/>
      <point x="425" y="122"/>
      <point x="422" y="113"/>
      <point x="421" y="108" type="curve" smooth="yes"/>
      <point x="419" y="95" type="line" smooth="yes"/>
      <point x="417" y="82"/>
      <point x="423" y="73"/>
      <point x="436" y="73" type="curve" smooth="yes"/>
      <point x="583" y="73" type="line"/>
      <point x="572" y="20" type="line" smooth="yes"/>
      <point x="569" y="7"/>
      <point x="576" y="-2"/>
      <point x="589" y="-2" type="curve" smooth="yes"/>
      <point x="606" y="-2" type="line" smooth="yes"/>
      <point x="619" y="-2"/>
      <point x="630" y="7"/>
      <point x="633" y="20" type="curve" smooth="yes"/>
      <point x="644" y="73" type="line"/>
      <point x="679" y="73" type="line" smooth="yes"/>
      <point x="692" y="73"/>
      <point x="703" y="82"/>
      <point x="706" y="95" type="curve" smooth="yes"/>
      <point x="709" y="107" type="line" smooth="yes"/>
      <point x="712" y="120"/>
      <point x="704" y="129"/>
      <point x="691" y="129" type="curve" smooth="yes"/>
      <point x="656" y="129" type="line"/>
      <point x="698" y="326" type="line" smooth="yes"/>
      <point x="701" y="339"/>
      <point x="694" y="348"/>
      <point x="681" y="348" type="curve" smooth="yes"/>
      <point x="655" y="348" type="line" smooth="yes"/>
      <point x="646" y="348"/>
      <point x="631" y="344"/>
      <point x="618" y="330" type="curve" smooth="yes"/>
    </contour>
    <contour>
      <point x="623" y="257" type="line"/>
      <point x="595" y="129" type="line"/>
      <point x="504" y="129" type="line"/>
    </contour>
    <contour>
      <point x="365" y="678" type="line" smooth="yes"/>
      <point x="368" y="691"/>
      <point x="361" y="700"/>
      <point x="348" y="700" type="curve" smooth="yes"/>
      <point x="150" y="700" type="line" smooth="yes"/>
      <point x="137" y="700"/>
      <point x="126" y="691"/>
      <point x="123" y="678" type="curve" smooth="yes"/>
      <point x="121" y="666" type="line" smooth="yes"/>
      <point x="118" y="653"/>
      <point x="125" y="644"/>
      <point x="138" y="644" type="curve" smooth="yes"/>
      <point x="280" y="644" type="line"/>
      <point x="174" y="563" type="line" smooth="yes"/>
      <point x="165" y="556"/>
      <point x="159" y="549"/>
      <point x="157" y="540" type="curve" smooth="yes"/>
      <point x="153" y="523" type="line" smooth="yes"/>
      <point x="150" y="510"/>
      <point x="157" y="501"/>
      <point x="170" y="501" type="curve" smooth="yes"/>
      <point x="210" y="501" type="line" smooth="yes"/>
      <point x="253" y="501"/>
      <point x="280" y="489"/>
      <point x="272" y="451" type="curve" smooth="yes"/>
      <point x="265" y="419"/>
      <point x="227" y="401"/>
      <point x="183" y="401" type="curve" smooth="yes"/>
      <point x="127" y="401"/>
      <point x="122" y="415"/>
      <point x="114" y="430" type="curve" smooth="yes"/>
      <point x="111" y="437"/>
      <point x="104" y="444"/>
      <point x="95" y="444" type="curve" smooth="yes"/>
      <point x="75" y="444" type="line" smooth="yes"/>
      <point x="69" y="444"/>
      <point x="54" y="438"/>
      <point x="54" y="425" type="curve" smooth="yes"/>
      <point x="53" y="383"/>
      <point x="98" y="345"/>
      <point x="181" y="345" type="curve" smooth="yes"/>
      <point x="274" y="345"/>
      <point x="316" y="385"/>
      <point x="330" y="451" type="curve" smooth="yes"/>
      <point x="342" y="507"/>
      <point x="313" y="553"/>
      <point x="247" y="557" type="curve"/>
      <point x="338" y="627" type="line" smooth="yes"/>
      <point x="355" y="641"/>
      <point x="359" y="651"/>
      <point x="363" y="666" type="curve"/>
    </contour>
  </outline>
</glyph>
<glyph name="qubutshebrew" format="1">
  <advance width="0"/>
  <unicode hex="05BB"/>
  <outline>
    <contour>
      <point x="65" y="-264" type="line" smooth="yes"/>
      <point x="78" y="-264"/>
      <point x="89" y="-255"/>
      <point x="92" y="-242" type="curve" smooth="yes"/>
      <point x="96" y="-219" type="line" smooth="yes"/>
      <point x="99" y="-206"/>
      <point x="92" y="-197"/>
      <point x="79" y="-197" type="curve" smooth="yes"/>
      <point x="56" y="-197" type="line" smooth="yes"/>
      <point x="43" y="-197"/>
      <point x="32" y="-206"/>
      <point x="29" y="-219" type="curve" smooth="yes"/>
      <point x="25" y="-242" type="line" smooth="yes"/>
      <point x="22" y="-255"/>
      <point x="29" y="-264"/>
      <point x="42" y="-264" type="curve" smooth="yes"/>
    </contour>
    <contour>
      <point x="-50" y="-146" type="line" smooth="yes"/>
      <point x="-37" y="-146"/>
      <point x="-26" y="-137"/>
      <point x="-23" y="-124" type="curve" smooth="yes"/>
      <point x="-18" y="-101" type="line" smooth="yes"/>
      <point x="-16" y="-88"/>
      <point x="-23" y="-79"/>
      <point x="-36" y="-79" type="curve" smooth="yes"/>
      <point x="-59" y="-79" type="line" smooth="yes"/>
      <point x="-72" y="-79"/>
      <point x="-83" y="-88"/>
      <point x="-85" y="-101" type="curve" smooth="yes"/>
      <point x="-90" y="-124" type="line" smooth="yes"/>
      <point x="-93" y="-137"/>
      <point x="-86" y="-146"/>
      <point x="-73" y="-146" type="curve" smooth="yes"/>
    </contour>
    <contour>
      <point x="7" y="-206" type="line" smooth="yes"/>
      <point x="20" y="-206"/>
      <point x="31" y="-197"/>
      <point x="34" y="-184" type="curve" smooth="yes"/>
      <point x="39" y="-161" type="line" smooth="yes"/>
      <point x="42" y="-148"/>
      <point x="34" y="-139"/>
      <point x="21" y="-139" type="curve" smooth="yes"/>
      <point x="-2" y="-139" type="line" smooth="yes"/>
      <point x="-15" y="-139"/>
      <point x="-25" y="-148"/>
      <point x="-28" y="-161" type="curve" smooth="yes"/>
      <point x="-33" y="-184" type="line" smooth="yes"/>
      <point x="-36" y="-197"/>
      <point x="-29" y="-206"/>
      <point x="-16" y="-206" type="curve" smooth="yes"/>
    </contour>
    <contour>
      <point x="0" y="0" type="move" name="_bottom"/>
    </contour>
  </outline>
</glyph>
<glyph name="alefhebrew" format="1">
  <advance width="568"/>
  <unicode hex="05D0"/>
  <outline>
    <contour>
      <point x="442" y="0" type="line" smooth="yes"/>
      <point x="453" y="0"/>
      <point x="464" y="9"/>
      <point x="466" y="20" type="curve" smooth="yes"/>
      <point x="467" y="25"/>
      <point x="467" y="31"/>
      <point x="463" y="40" type="curve"/>
      <point x="202" y="556" type="line"/>
      <point x="199" y="563"/>
      <point x="193" y="571"/>
      <point x="180" y="571" type="curve" smooth="yes"/>
      <point x="161" y="571" type="line" smooth="yes"/>
      <point x="150" y="571"/>
      <point x="139" y="562"/>
      <point x="137" y="551" type="curve" smooth="yes"/>
      <point x="136" y="546"/>
      <point x="137" y="540"/>
      <point x="141" y="531" type="curve" smooth="yes"/>
      <point x="401" y="15" type="line"/>
      <point x="406" y="8"/>
      <point x="410" y="0"/>
      <point x="423" y="0" type="curve" smooth="yes"/>
    </contour>
    <contour>
      <point x="45" y="0" type="line" smooth="yes"/>
      <point x="58" y="0"/>
      <point x="69" y="9"/>
      <point x="72" y="22" type="curve" smooth="yes"/>
      <point x="104" y="176" type="line" smooth="yes"/>
      <point x="118" y="242"/>
      <point x="148" y="316"/>
      <point x="242" y="367" type="curve"/>
      <point x="219" y="415" type="line"/>
      <point x="96" y="350"/>
      <point x="62" y="264"/>
      <point x="44" y="181" type="curve" smooth="yes"/>
      <point x="11" y="22" type="line" smooth="yes"/>
      <point x="8" y="9"/>
      <point x="15" y="0"/>
      <point x="28" y="0" type="curve" smooth="yes"/>
    </contour>
    <contour>
      <point x="497" y="244"/>
      <point x="527" y="313"/>
      <point x="545" y="400" type="curve" smooth="yes"/>
      <point x="577" y="549" type="line" smooth="yes"/>
      <point x="579" y="562"/>
      <point x="572" y="571"/>
      <point x="559" y="571" type="curve" smooth="yes"/>
      <point x="542" y="571" type="line" smooth="yes"/>
      <point x="529" y="571"/>
      <point x="518" y="562"/>
      <point x="516" y="549" type="curve" smooth="yes"/>
      <point x="485" y="405" type="line" smooth="yes"/>
      <point x="470" y="335"/>
      <point x="459" y="281"/>
      <point x="335" y="229" type="curve"/>
      <point x="349" y="178" type="line"/>
    </contour>
    <contour>
      <point x="237" y="0" type="move" name="bottom"/>
    </contour>
    <contour>
      <point x="348" y="520" type="move" name="top"/>
    </contour>
    <contour>
      <point x="-25" y="0" type="move" name="bottomleft"/>
    </contour>
    <contour>
      <point x="86" y="520" type="move" name="topleft"/>
    </contour>
    <contour>
      <point x="209" y="142" type="move" name="center"/>
    </contour>
  </outline>
</glyph>
<glyph name="gimelhebrew" format="1">
  <advance width="430"/>
  <unicode hex="05D2"/>
  <outline>
    <contour>
      <point x="318" y="0" type="line" smooth="yes"/>
      <point x="331" y="0"/>
      <point x="344" y="9"/>
      <point x="345" y="22" type="curve" smooth="yes"/>
      <point x="351" y="337" type="line" smooth="yes"/>
      <point x="352" y="489"/>
      <point x="325" y="571"/>
      <point x="207" y="571" type="curve" smooth="yes"/>
      <point x="170" y="571" type="line" smooth="yes"/>
      <point x="157" y="571"/>
      <point x="146" y="562"/>
      <point x="144" y="549" type="curve" smooth="yes"/>
      <point x="141" y="535" type="line" smooth="yes"/>
      <point x="138" y="522"/>
      <point x="145" y="513"/>
      <point x="158" y="513" type="curve" smooth="yes"/>
      <point x="195" y="513" type="line" smooth="yes"/>
      <point x="278" y="513"/>
      <point x="289" y="449"/>
      <point x="289" y="332" type="curve" smooth="yes"/>
      <point x="284" y="22" type="line" smooth="yes"/>
      <point x="284" y="9"/>
      <point x="288" y="0"/>
      <point x="301" y="0" type="curve" smooth="yes"/>
    </contour>
    <contour>
      <point x="230" y="87"/>
      <point x="347" y="190"/>
      <point x="349" y="271" type="curve"/>
      <point x="288" y="259" type="line"/>
      <point x="285" y="220"/>
      <point x="206" y="140"/>
      <point x="148" y="106" type="curve" smooth="yes"/>
      <point x="109" y="83"/>
      <point x="49" y="64"/>
      <point x="34" y="59" type="curve" smooth="yes"/>
      <point x="17" y="53"/>
      <point x="9" y="44"/>
      <point x="7" y="34" type="curve" smooth="yes"/>
      <point x="1" y="7" type="line" smooth="yes"/>
      <point x="-1" y="-7"/>
      <point x="9" y="-10"/>
      <point x="22" y="-8" type="curve" smooth="yes"/>
      <point x="71" y="1"/>
      <point x="115" y="17"/>
      <point x="171" y="51" type="curve" smooth="yes"/>
    </contour>
    <contour>
      <point x="162" y="260" type="move" name="center"/>
    </contour>
    <contour>
      <point x="316" y="520" type="move" name="top"/>
    </contour>
    <contour>
      <point x="-25" y="0" type="move" name="bottomleft"/>
    </contour>
    <contour>
      <point x="86" y="520" type="move" name="topleft"/>
    </contour>
    <contour>
      <point x="205" y="0" type="move" name="bottom"/>
    </contour>
  </outline>
</glyph>
<glyph name="vavhebrew" format="1">
  <advance width="229"/>
  <unicode hex="05D5"/>
  <outline>
    <contour>
      <point x="73" y="0" type="line" smooth="yes"/>
      <point x="86" y="0"/>
      <point x="97" y="9"/>
      <point x="100" y="22" type="curve" smooth="yes"/>
      <point x="212" y="549" type="line"/>
      <point x="214" y="562"/>
      <point x="207" y="571"/>
      <point x="194" y="571" type="curve" smooth="yes"/>
      <point x="177" y="571" type="line" smooth="yes"/>
      <point x="164" y="571"/>
      <point x="153" y="562"/>
      <point x="151" y="549" type="curve" smooth="yes"/>
      <point x="39" y="22" type="line" smooth="yes"/>
      <point x="36" y="9"/>
      <point x="43" y="0"/>
      <point x="56" y="0" type="curve" smooth="yes"/>
    </contour>
    <contour>
      <point x="18" y="260" type="move" name="center"/>
    </contour>
    <contour>
      <point x="176" y="520" type="move" name="top"/>
    </contour>
    <contour>
      <point x="-30" y="0" type="move" name="bottomleft"/>
    </contour>
    <contour>
      <point x="232" y="520" type="move" name="topleft"/>
    </contour>
    <contour>
      <point x="65" y="0" type="move" name="bottom"/>
    </contour>
  </outline>
</glyph>
<glyph name="zayinhebrew" format="1">
  <advance width="386"/>
  <unicode hex="05D6"/>
  <outline>
    <contour>
      <point x="135" y="0" type="line" smooth="yes"/>
      <point x="148" y="0"/>
      <point x="159" y="9"/>
      <point x="162" y="22" type="curve"/>
      <point x="241" y="395" type="line" smooth="yes"/>
      <point x="256" y="468"/>
      <point x="290" y="523"/>
      <point x="324" y="523" type="curve"/>
      <point x="252" y="523" type="line"/>
      <point x="229" y="523"/>
      <point x="197" y="476"/>
      <point x="181" y="400" type="curve" smooth="yes"/>
      <point x="101" y="22" type="line" smooth="yes"/>
      <point x="98" y="9"/>
      <point x="105" y="0"/>
      <point x="118" y="0" type="curve" smooth="yes"/>
    </contour>
    <contour>
      <point x="363" y="513" type="line" smooth="yes"/>
      <point x="376" y="513"/>
      <point x="387" y="522"/>
      <point x="390" y="535" type="curve" smooth="yes"/>
      <point x="393" y="549" type="line" smooth="yes"/>
      <point x="395" y="562"/>
      <point x="388" y="571"/>
      <point x="375" y="571" type="curve" smooth="yes"/>
      <point x="153" y="571" type="line" smooth="yes"/>
      <point x="140" y="571"/>
      <point x="129" y="562"/>
      <point x="127" y="549" type="curve" smooth="yes"/>
      <point x="124" y="535" type="line" smooth="yes"/>
      <point x="121" y="522"/>
      <point x="128" y="513"/>
      <point x="141" y="513" type="curve" smooth="yes"/>
    </contour>
    <contour>
      <point x="78" y="260" type="move" name="center"/>
    </contour>
    <contour>
      <point x="255" y="520" type="move" name="top"/>
    </contour>
    <contour>
      <point x="17" y="0" type="move" name="bottomleft"/>
    </contour>
    <contour>
      <point x="128" y="520" type="move" name="topleft"/>
    </contour>
    <contour>
      <point x="127" y="0" type="move" name="bottom"/>
    </contour>
  </outline>
</glyph>
<glyph name="finalkafhebrew" format="1">
  <advance width="570"/>
  <unicode hex="05DA"/>
  <outline>
    <contour>
      <point x="359" y="-102" type="line"/>
      <point x="357" y="-115"/>
      <point x="364" y="-124"/>
      <point x="377" y="-124" type="curve" smooth="yes"/>
      <point x="394" y="-124" type="line" smooth="yes"/>
      <point x="407" y="-124"/>
      <point x="418" y="-115"/>
      <point x="420" y="-102" type="curve"/>
      <point x="512" y="327" type="line"/>
      <point x="546" y="488"/>
      <point x="485" y="571"/>
      <point x="315" y="571" type="curve" smooth="yes"/>
      <point x="168" y="571" type="line" smooth="yes"/>
      <point x="155" y="571"/>
      <point x="144" y="562"/>
      <point x="142" y="549" type="curve" smooth="yes"/>
      <point x="139" y="535" type="line" smooth="yes"/>
      <point x="136" y="522"/>
      <point x="143" y="513"/>
      <point x="156" y="513" type="curve" smooth="yes"/>
      <point x="298" y="513" type="line" smooth="yes"/>
      <point x="433" y="513"/>
      <point x="475" y="442"/>
      <point x="449" y="322" type="curve"/>
    </contour>
    <contour>
      <point x="316" y="260" type="move" name="center"/>
    </contour>
    <contour>
      <point x="372" y="520" type="move" name="top"/>
    </contour>
    <contour>
      <point x="31" y="0" type="move" name="bottomleft"/>
    </contour>
    <contour>
      <point x="142" y="520" type="move" name="topleft"/>
    </contour>
    <contour>
      <point x="264" y="340" type="move" name="bottom"/>
    </contour>
  </outline>
</glyph>
<glyph name="kafhebrew" format="1">
  <advance width="563"/>
  <unicode hex="05DB"/>
  <outline>
    <contour>
      <point x="205" y="0" type="line" smooth="yes"/>
      <point x="375" y="0"/>
      <point x="466" y="89"/>
      <point x="504" y="244" type="curve" smooth="yes"/>
      <point x="511" y="274"/>
      <point x="516" y="297"/>
      <point x="522" y="327" type="curve" smooth="yes"/>
      <point x="549" y="482"/>
      <point x="496" y="571"/>
      <point x="326" y="571" type="curve" smooth="yes"/>
      <point x="179" y="571" type="line" smooth="yes"/>
      <point x="166" y="571"/>
      <point x="155" y="562"/>
      <point x="153" y="549" type="curve" smooth="yes"/>
      <point x="150" y="535" type="line" smooth="yes"/>
      <point x="147" y="522"/>
      <point x="154" y="513"/>
      <point x="167" y="513" type="curve" smooth="yes"/>
      <point x="309" y="513" type="line" smooth="yes"/>
      <point x="444" y="513"/>
      <point x="481" y="442"/>
      <point x="459" y="322" type="curve" smooth="yes"/>
      <point x="454" y="292"/>
      <point x="451" y="279"/>
      <point x="444" y="249" type="curve"/>
      <point x="413" y="129"/>
      <point x="347" y="58"/>
      <point x="212" y="58" type="curve" smooth="yes"/>
      <point x="70" y="58" type="line" smooth="yes"/>
      <point x="57" y="58"/>
      <point x="46" y="49"/>
      <point x="44" y="36" type="curve" smooth="yes"/>
      <point x="41" y="22" type="line" smooth="yes"/>
      <point x="38" y="9"/>
      <point x="45" y="0"/>
      <point x="58" y="0" type="curve" smooth="yes"/>
    </contour>
    <contour>
      <point x="213" y="0" type="move" name="bottom"/>
    </contour>
    <contour>
      <point x="318" y="520" type="move" name="top"/>
    </contour>
    <contour>
      <point x="9" y="0" type="move" name="bottomleft"/>
    </contour>
    <contour>
      <point x="120" y="520" type="move" name="topleft"/>
    </contour>
    <contour>
      <point x="262" y="260" type="move" name="center"/>
    </contour>
  </outline>
</glyph>
<glyph name="finalmemhebrew" format="1">
  <advance width="608"/>
  <unicode hex="05DD"/>
  <outline>
    <contour>
      <point x="458" y="0" type="line" smooth="yes"/>
      <point x="471" y="0"/>
      <point x="482" y="9"/>
      <point x="485" y="22" type="curve" smooth="yes"/>
      <point x="550" y="327" type="line" smooth="yes"/>
      <point x="582" y="482"/>
      <point x="524" y="571"/>
      <point x="354" y="571" type="curve" smooth="yes"/>
      <point x="177" y="571" type="line" smooth="yes"/>
      <point x="164" y="571"/>
      <point x="153" y="562"/>
      <point x="151" y="549" type="curve"/>
      <point x="39" y="22" type="line" smooth="yes"/>
      <point x="36" y="9"/>
      <point x="43" y="0"/>
      <point x="56" y="0" type="curve" smooth="yes"/>
    </contour>
    <contour>
      <point x="203" y="513" type="line"/>
      <point x="337" y="513" type="line" smooth="yes"/>
      <point x="472" y="513"/>
      <point x="513" y="442"/>
      <point x="487" y="322" type="curve" smooth="yes"/>
      <point x="431" y="58" type="line"/>
      <point x="106" y="58" type="line"/>
    </contour>
    <contour>
      <point x="309" y="260" type="move" name="center"/>
    </contour>
    <contour>
      <point x="365" y="520" type="move" name="top"/>
    </contour>
    <contour>
      <point x="-30" y="0" type="move" name="bottomleft"/>
    </contour>
    <contour>
      <point x="81" y="520" type="move" name="topleft"/>
    </contour>
    <contour>
      <point x="254" y="0" type="move" name="bottom"/>
    </contour>
  </outline>
</glyph>
<glyph name="memhebrew" format="1">
  <advance width="601"/>
  <unicode hex="05DE"/>
  <outline>
    <contour>
      <point x="451" y="0" type="line" smooth="yes"/>
      <point x="464" y="0"/>
      <point x="475" y="9"/>
      <point x="478" y="22" type="curve" smooth="yes"/>
      <point x="543" y="327" type="line" smooth="yes"/>
      <point x="575" y="482"/>
      <point x="509" y="578"/>
      <point x="389" y="578" type="curve"/>
      <point x="281" y="579"/>
      <point x="197" y="499"/>
      <point x="152" y="420" type="curve"/>
      <point x="151" y="349" type="line"/>
      <point x="194" y="428"/>
      <point x="266" y="521"/>
      <point x="372" y="520" type="curve"/>
      <point x="458" y="520"/>
      <point x="506" y="442"/>
      <point x="480" y="322" type="curve" smooth="yes"/>
      <point x="424" y="58" type="line"/>
      <point x="210" y="58" type="line" smooth="yes"/>
      <point x="197" y="58"/>
      <point x="186" y="49"/>
      <point x="184" y="36" type="curve" smooth="yes"/>
      <point x="181" y="22" type="line" smooth="yes"/>
      <point x="178" y="9"/>
      <point x="185" y="0"/>
      <point x="198" y="0" type="curve" smooth="yes"/>
    </contour>
    <contour>
      <point x="36" y="0" type="line" smooth="yes"/>
      <point x="48" y="0"/>
      <point x="61" y="10"/>
      <point x="66" y="23" type="curve" smooth="yes"/>
      <point x="223" y="457" type="line"/>
      <point x="229" y="469"/>
      <point x="223" y="480"/>
      <point x="210" y="481" type="curve" smooth="yes"/>
      <point x="194" y="484" type="line" smooth="yes"/>
      <point x="182" y="486"/>
      <point x="170" y="479"/>
      <point x="165" y="466" type="curve" smooth="yes"/>
      <point x="5" y="23" type="line" smooth="yes"/>
      <point x="0" y="10"/>
      <point x="6" y="0"/>
      <point x="18" y="0" type="curve" smooth="yes"/>
    </contour>
    <contour>
      <point x="143" y="571"/>
      <point x="129" y="561"/>
      <point x="132" y="548" type="curve" smooth="yes"/>
      <point x="156" y="437" type="line" smooth="yes"/>
      <point x="158" y="424"/>
      <point x="165" y="417"/>
      <point x="177" y="419" type="curve" smooth="yes"/>
      <point x="195" y="422" type="line" smooth="yes"/>
      <point x="208" y="424"/>
      <point x="218" y="434"/>
      <point x="218" y="446" type="curve"/>
      <point x="196" y="548" type="line" smooth="yes"/>
      <point x="193" y="561"/>
      <point x="188" y="571"/>
      <point x="176" y="571" type="curve" smooth="yes"/>
      <point x="155" y="571" type="line" smooth="yes"/>
    </contour>
    <contour>
      <point x="260" y="0" type="move" name="bottom"/>
    </contour>
    <contour>
      <point x="355" y="520" type="move" name="top"/>
    </contour>
    <contour>
      <point x="-43" y="0" type="move" name="bottomleft"/>
    </contour>
    <contour>
      <point x="68" y="520" type="move" name="topleft"/>
    </contour>
    <contour>
      <point x="299" y="260" type="move" name="center"/>
    </contour>
  </outline>
</glyph>
<glyph name="finalnunhebrew" format="1">
  <advance width="229"/>
  <unicode hex="05DF"/>
  <outline>
    <contour>
      <point x="47" y="-124" type="line" smooth="yes"/>
      <point x="60" y="-124"/>
      <point x="71" y="-115"/>
      <point x="73" y="-102" type="curve"/>
      <point x="212" y="549" type="line" smooth="yes"/>
      <point x="214" y="562"/>
      <point x="207" y="571"/>
      <point x="194" y="571" type="curve" smooth="yes"/>
      <point x="177" y="571" type="line" smooth="yes"/>
      <point x="164" y="571"/>
      <point x="153" y="562"/>
      <point x="151" y="549" type="curve" smooth="yes"/>
      <point x="12" y="-102" type="line" smooth="yes"/>
      <point x="10" y="-115"/>
      <point x="17" y="-124"/>
      <point x="30" y="-124" type="curve" smooth="yes"/>
    </contour>
    <contour>
      <point x="120" y="260" type="move" name="center"/>
    </contour>
    <contour>
      <point x="176" y="520" type="move" name="top"/>
    </contour>
    <contour>
      <point x="-30" y="0" type="move" name="bottomleft"/>
    </contour>
    <contour>
      <point x="81" y="520" type="move" name="topleft"/>
    </contour>
    <contour>
      <point x="65" y="0" type="move" name="bottom"/>
    </contour>
  </outline>
</glyph>
<glyph name="samekhhebrew" format="1">
  <advance width="633"/>
  <unicode hex="05E1"/>
  <outline>
    <contour>
      <point x="443" y="-10"/>
      <point x="533" y="69"/>
      <point x="570" y="224" type="curve"/>
      <point x="575" y="244"/>
      <point x="590" y="317"/>
      <point x="594" y="337" type="curve" smooth="yes"/>
      <point x="621" y="492"/>
      <point x="576" y="571"/>
      <point x="406" y="571" type="curve"/>
      <point x="171" y="571" type="line" smooth="yes"/>
      <point x="158" y="571"/>
      <point x="147" y="562"/>
      <point x="145" y="549" type="curve" smooth="yes"/>
      <point x="79" y="239" type="line" smooth="yes"/>
      <point x="45" y="79"/>
      <point x="103" y="-10"/>
      <point x="263" y="-10" type="curve" smooth="yes"/>
    </contour>
    <contour>
      <point x="155" y="48"/>
      <point x="114" y="119"/>
      <point x="140" y="239" type="curve" smooth="yes"/>
      <point x="198" y="513" type="line"/>
      <point x="389" y="513" type="line" smooth="yes"/>
      <point x="494" y="513"/>
      <point x="554" y="452"/>
      <point x="532" y="332" type="curve"/>
      <point x="528" y="312"/>
      <point x="515" y="249"/>
      <point x="510" y="229" type="curve"/>
      <point x="481" y="109"/>
      <point x="415" y="48"/>
      <point x="275" y="48" type="curve" smooth="yes"/>
    </contour>
    <contour>
      <point x="266" y="0" type="move" name="bottom"/>
    </contour>
    <contour>
      <point x="377" y="520" type="move" name="top"/>
    </contour>
    <contour>
      <point x="-30" y="0" type="move" name="bottomleft"/>
    </contour>
    <contour>
      <point x="81" y="520" type="move" name="topleft"/>
    </contour>
    <contour>
      <point x="320" y="260" type="move" name="center"/>
    </contour>
  </outline>
</glyph>
<glyph name="ayinhebrew" format="1">
  <advance width="556"/>
  <unicode hex="05E2"/>
  <outline>
    <contour>
      <point x="235" y="19" type="line" smooth="yes"/>
      <point x="363" y="62"/>
      <point x="464" y="168"/>
      <point x="487" y="279" type="curve" smooth="yes"/>
      <point x="545" y="549" type="line" smooth="yes"/>
      <point x="547" y="562"/>
      <point x="540" y="571"/>
      <point x="527" y="571" type="curve" smooth="yes"/>
      <point x="510" y="571" type="line" smooth="yes"/>
      <point x="497" y="571"/>
      <point x="486" y="562"/>
      <point x="484" y="549" type="curve" smooth="yes"/>
      <point x="431" y="299" type="line" smooth="yes"/>
      <point x="410" y="202"/>
      <point x="360" y="119"/>
      <point x="235" y="77" type="curve" smooth="yes"/>
      <point x="12" y="1" type="line" smooth="yes"/>
      <point x="-1" y="-3"/>
      <point x="-5" y="-15"/>
      <point x="-8" y="-27" type="curve" smooth="yes"/>
      <point x="-11" y="-40" type="line" smooth="yes"/>
      <point x="-13" y="-53"/>
      <point x="0" y="-60"/>
      <point x="14" y="-55" type="curve" smooth="yes"/>
    </contour>
    <contour>
      <point x="227" y="47" type="line"/>
      <point x="190" y="556" type="line" smooth="yes"/>
      <point x="190" y="564"/>
      <point x="183" y="571"/>
      <point x="170" y="571" type="curve" smooth="yes"/>
      <point x="152" y="571" type="line" smooth="yes"/>
      <point x="141" y="571"/>
      <point x="130" y="562"/>
      <point x="128" y="551" type="curve" smooth="yes"/>
      <point x="127" y="546"/>
      <point x="128" y="541"/>
      <point x="129" y="531" type="curve" smooth="yes"/>
      <point x="162" y="24" type="line"/>
    </contour>
    <contour>
      <point x="359" y="260" type="move" name="center"/>
    </contour>
    <contour>
      <point x="415" y="520" type="move" name="top"/>
    </contour>
    <contour>
      <point x="-30" y="0" type="move" name="bottomleft"/>
    </contour>
    <contour>
      <point x="81" y="520" type="move" name="topleft"/>
    </contour>
    <contour>
      <point x="304" y="0" type="move" name="bottom"/>
    </contour>
  </outline>
</glyph>
<glyph name="finalpehebrew" format="1">
  <advance width="568"/>
  <unicode hex="05E3"/>
  <outline>
    <contour>
      <point x="392" y="-124" type="line" smooth="yes"/>
      <point x="405" y="-124"/>
      <point x="416" y="-115"/>
      <point x="418" y="-102" type="curve" smooth="yes"/>
      <point x="510" y="327" type="line" smooth="yes"/>
      <point x="542" y="482"/>
      <point x="484" y="571"/>
      <point x="314" y="571" type="curve"/>
      <point x="207" y="571" type="line" smooth="yes"/>
      <point x="194" y="571"/>
      <point x="183" y="562"/>
      <point x="181" y="549" type="curve" smooth="yes"/>
      <point x="178" y="535" type="line" smooth="yes"/>
      <point x="175" y="522"/>
      <point x="182" y="513"/>
      <point x="195" y="513" type="curve" smooth="yes"/>
      <point x="297" y="513" type="line"/>
      <point x="432" y="513"/>
      <point x="473" y="442"/>
      <point x="447" y="322" type="curve" smooth="yes"/>
      <point x="357" y="-102" type="line" smooth="yes"/>
      <point x="355" y="-115"/>
      <point x="362" y="-124"/>
      <point x="375" y="-124" type="curve" smooth="yes"/>
    </contour>
    <contour>
      <point x="160" y="529"/>
      <point x="107" y="454"/>
      <point x="91" y="381" type="curve" smooth="yes"/>
      <point x="69" y="277"/>
      <point x="107" y="230"/>
      <point x="144" y="191" type="curve"/>
      <point x="162" y="174" type="line"/>
      <point x="170" y="166"/>
      <point x="183" y="167"/>
      <point x="194" y="177" type="curve"/>
      <point x="211" y="192" type="line"/>
      <point x="221" y="203"/>
      <point x="223" y="216"/>
      <point x="214" y="223" type="curve"/>
      <point x="197" y="241" type="line"/>
      <point x="180" y="259"/>
      <point x="135" y="301"/>
      <point x="152" y="381" type="curve" smooth="yes"/>
      <point x="168" y="456"/>
      <point x="204" y="503"/>
      <point x="233" y="535" type="curve" smooth="yes"/>
      <point x="242" y="545"/>
      <point x="238" y="559"/>
      <point x="228" y="563" type="curve"/>
      <point x="216" y="569" type="line"/>
      <point x="204" y="574"/>
      <point x="195" y="569"/>
      <point x="184" y="557" type="curve" smooth="yes"/>
    </contour>
    <contour>
      <point x="293" y="328" type="move" name="center"/>
    </contour>
    <contour>
      <point x="346" y="520" type="move" name="top"/>
    </contour>
    <contour>
      <point x="-30" y="0" type="move" name="bottomleft"/>
    </contour>
    <contour>
      <point x="81" y="520" type="move" name="topleft"/>
    </contour>
    <contour>
      <point x="235" y="0" type="move" name="bottom"/>
    </contour>
  </outline>
</glyph>
<glyph name="finaltsadihebrew" format="1">
  <advance width="477"/>
  <unicode hex="05E5"/>
  <outline>
    <contour>
      <point x="261" y="-124" type="line" smooth="yes"/>
      <point x="272" y="-124"/>
      <point x="283" y="-115"/>
      <point x="285" y="-104" type="curve" smooth="yes"/>
      <point x="286" y="-99"/>
      <point x="285" y="-94"/>
      <point x="283" y="-84" type="curve" smooth="yes"/>
      <point x="229" y="206" type="line"/>
      <point x="364" y="224"/>
      <point x="451" y="309"/>
      <point x="480" y="447" type="curve" smooth="yes"/>
      <point x="502" y="549" type="line" smooth="yes"/>
      <point x="504" y="562"/>
      <point x="497" y="571"/>
      <point x="484" y="571" type="curve" smooth="yes"/>
      <point x="467" y="571" type="line" smooth="yes"/>
      <point x="454" y="571"/>
      <point x="443" y="562"/>
      <point x="441" y="549" type="curve" smooth="yes"/>
      <point x="420" y="452" type="line" smooth="yes"/>
      <point x="396" y="341"/>
      <point x="334" y="272"/>
      <point x="218" y="262" type="curve"/>
      <point x="165" y="547" type="line" smooth="yes"/>
      <point x="162" y="564"/>
      <point x="156" y="571"/>
      <point x="143" y="571" type="curve" smooth="yes"/>
      <point x="125" y="571" type="line" smooth="yes"/>
      <point x="114" y="571"/>
      <point x="103" y="562"/>
      <point x="101" y="551" type="curve" smooth="yes"/>
      <point x="100" y="546"/>
      <point x="101" y="541"/>
      <point x="103" y="531" type="curve" smooth="yes"/>
      <point x="220" y="-109" type="line"/>
      <point x="222" y="-117"/>
      <point x="227" y="-124"/>
      <point x="240" y="-124" type="curve" smooth="yes"/>
    </contour>
    <contour>
      <point x="244" y="260" type="move" name="center"/>
    </contour>
    <contour>
      <point x="300" y="520" type="move" name="top"/>
    </contour>
    <contour>
      <point x="-30" y="0" type="move" name="bottomleft"/>
    </contour>
    <contour>
      <point x="81" y="520" type="move" name="topleft"/>
    </contour>
    <contour>
      <point x="189" y="0" type="move" name="bottom"/>
    </contour>
  </outline>
</glyph>
<glyph name="qofhebrew" format="1">
  <advance width="610"/>
  <unicode hex="05E7"/>
  <outline>
    <contour>
      <point x="32" y="-191" type="line" smooth="yes"/>
      <point x="45" y="-191"/>
      <point x="56" y="-182"/>
      <point x="59" y="-169" type="curve"/>
      <point x="179" y="393" type="line" smooth="yes"/>
      <point x="181" y="406"/>
      <point x="174" y="415"/>
      <point x="161" y="415" type="curve" smooth="yes"/>
      <point x="144" y="415" type="line" smooth="yes"/>
      <point x="131" y="415"/>
      <point x="120" y="406"/>
      <point x="118" y="393" type="curve" smooth="yes"/>
      <point x="-2" y="-169" type="line" smooth="yes"/>
      <point x="-5" y="-182"/>
      <point x="2" y="-191"/>
      <point x="15" y="-191" type="curve" smooth="yes"/>
    </contour>
    <contour>
      <point x="272" y="7" type="line" smooth="yes"/>
      <point x="391" y="46"/>
      <point x="511" y="119"/>
      <point x="551" y="307" type="curve"/>
      <point x="593" y="503"/>
      <point x="543" y="571"/>
      <point x="360" y="571" type="curve"/>
      <point x="177" y="571" type="line"/>
      <point x="164" y="571"/>
      <point x="153" y="562"/>
      <point x="151" y="549" type="curve" smooth="yes"/>
      <point x="148" y="535" type="line"/>
      <point x="145" y="522"/>
      <point x="152" y="513"/>
      <point x="165" y="513" type="curve"/>
      <point x="343" y="513" type="line"/>
      <point x="485" y="513"/>
      <point x="523" y="462"/>
      <point x="492" y="314" type="curve"/>
      <point x="459" y="162"/>
      <point x="380" y="108"/>
      <point x="283" y="73" type="curve" smooth="yes"/>
      <point x="238" y="57" type="line" smooth="yes"/>
      <point x="222" y="51"/>
      <point x="214" y="42"/>
      <point x="212" y="32" type="curve" smooth="yes"/>
      <point x="206" y="7" type="line" smooth="yes"/>
      <point x="204" y="-7"/>
      <point x="214" y="-12"/>
      <point x="227" y="-8" type="curve" smooth="yes"/>
    </contour>
    <contour>
      <point x="280" y="260" type="move" name="center"/>
    </contour>
    <contour>
      <point x="336" y="520" type="move" name="top"/>
    </contour>
    <contour>
      <point x="-30" y="0" type="move" name="bottomleft"/>
    </contour>
    <contour>
      <point x="81" y="520" type="move" name="topleft"/>
    </contour>
    <contour>
      <point x="315" y="0" type="move" name="bottom"/>
    </contour>
  </outline>
</glyph>
<glyph name="reshhebrew" format="1">
  <advance width="534"/>
  <unicode hex="05E8"/>
  <outline>
    <contour>
      <point x="384" y="0" type="line" smooth="yes"/>
      <point x="397" y="0"/>
      <point x="408" y="9"/>
      <point x="411" y="22" type="curve" smooth="yes"/>
      <point x="476" y="327" type="line" smooth="yes"/>
      <point x="508" y="482"/>
      <point x="450" y="571"/>
      <point x="280" y="571" type="curve" smooth="yes"/>
      <point x="153" y="571" type="line" smooth="yes"/>
      <point x="140" y="571"/>
      <point x="129" y="562"/>
      <point x="127" y="549" type="curve" smooth="yes"/>
      <point x="124" y="535" type="line" smooth="yes"/>
      <point x="121" y="522"/>
      <point x="128" y="513"/>
      <point x="141" y="513" type="curve" smooth="yes"/>
      <point x="263" y="513" type="line" smooth="yes"/>
      <point x="398" y="513"/>
      <point x="439" y="442"/>
      <point x="413" y="322" type="curve" smooth="yes"/>
      <point x="350" y="22" type="line" smooth="yes"/>
      <point x="347" y="9"/>
      <point x="354" y="0"/>
      <point x="367" y="0" type="curve" smooth="yes"/>
    </contour>
    <contour>
      <point x="253" y="260" type="move" name="center"/>
    </contour>
    <contour>
      <point x="352" y="520" type="move" name="top"/>
    </contour>
    <contour>
      <point x="16" y="0" type="move" name="bottomleft"/>
    </contour>
    <contour>
      <point x="127" y="520" type="move" name="topleft"/>
    </contour>
    <contour>
      <point x="374" y="0" type="move" name="bottom"/>
    </contour>
  </outline>
</glyph>
<glyph name="shinhebrew" format="1">
  <advance width="711"/>
  <unicode hex="05E9"/>
  <outline>
    <contour>
      <point x="289" y="54" type="line" smooth="yes"/>
      <point x="185" y="54"/>
      <point x="124" y="118"/>
      <point x="149" y="234" type="curve"/>
      <point x="212" y="549" type="line"/>
      <point x="214" y="562"/>
      <point x="207" y="571"/>
      <point x="194" y="571" type="curve" smooth="yes"/>
      <point x="177" y="571" type="line" smooth="yes"/>
      <point x="164" y="571"/>
      <point x="153" y="562"/>
      <point x="151" y="549" type="curve" smooth="yes"/>
      <point x="84" y="237" type="line" smooth="yes"/>
      <point x="52" y="87"/>
      <point x="132" y="-5"/>
      <point x="249" y="-5" type="curve" smooth="yes"/>
      <point x="316" y="-5" type="line"/>
      <point x="476" y="-10"/>
      <point x="604" y="98"/>
      <point x="639" y="265" type="curve" smooth="yes"/>
      <point x="700" y="549" type="line"/>
      <point x="702" y="562"/>
      <point x="695" y="571"/>
      <point x="682" y="571" type="curve" smooth="yes"/>
      <point x="665" y="571" type="line" smooth="yes"/>
      <point x="652" y="571"/>
      <point x="641" y="562"/>
      <point x="639" y="549" type="curve"/>
      <point x="580" y="272" type="line" smooth="yes"/>
      <point x="552" y="141"/>
      <point x="462" y="51"/>
      <point x="324" y="54" type="curve"/>
    </contour>
    <contour>
      <point x="302" y="190"/>
      <point x="406" y="292"/>
      <point x="431" y="408" type="curve" smooth="yes"/>
      <point x="461" y="549" type="line" smooth="yes"/>
      <point x="463" y="562"/>
      <point x="456" y="571"/>
      <point x="443" y="571" type="curve" smooth="yes"/>
      <point x="426" y="571" type="line" smooth="yes"/>
      <point x="413" y="571"/>
      <point x="402" y="562"/>
      <point x="400" y="549" type="curve" smooth="yes"/>
      <point x="371" y="413" type="line" smooth="yes"/>
      <point x="353" y="329"/>
      <point x="297" y="252"/>
      <point x="127" y="249" type="curve"/>
      <point x="118" y="192" type="line"/>
    </contour>
    <contour>
      <point x="479" y="260" type="move" name="center"/>
    </contour>
    <contour>
      <point x="420" y="520" type="move" name="top"/>
    </contour>
    <contour>
      <point x="-26" y="0" type="move" name="bottomleft"/>
    </contour>
    <contour>
      <point x="85" y="520" type="move" name="topleft"/>
    </contour>
    <contour>
      <point x="754" y="520" type="move" name="topright"/>
    </contour>
    <contour>
      <point x="309" y="0" type="move" name="bottom"/>
    </contour>
  </outline>
</glyph>
<glyph name="tavhebrew" format="1">
  <advance width="639"/>
  <unicode hex="05EA"/>
  <outline>
    <contour>
      <point x="368" y="513" type="line"/>
      <point x="503" y="513"/>
      <point x="544" y="442"/>
      <point x="518" y="322" type="curve" smooth="yes"/>
      <point x="455" y="22" type="line" smooth="yes"/>
      <point x="452" y="9"/>
      <point x="459" y="0"/>
      <point x="472" y="0" type="curve" smooth="yes"/>
      <point x="489" y="0" type="line" smooth="yes"/>
      <point x="502" y="0"/>
      <point x="513" y="9"/>
      <point x="516" y="22" type="curve" smooth="yes"/>
      <point x="581" y="327" type="line" smooth="yes"/>
      <point x="613" y="482"/>
      <point x="555" y="571"/>
      <point x="385" y="571" type="curve" smooth="yes"/>
      <point x="193" y="571" type="line" smooth="yes"/>
      <point x="180" y="571"/>
      <point x="169" y="562"/>
      <point x="167" y="549" type="curve" smooth="yes"/>
      <point x="164" y="535" type="line" smooth="yes"/>
      <point x="161" y="522"/>
      <point x="168" y="513"/>
      <point x="181" y="513" type="curve"/>
    </contour>
    <contour>
      <point x="250" y="553"/>
      <point x="246" y="544"/>
      <point x="236" y="531" type="curve" smooth="yes"/>
      <point x="188" y="467"/>
      <point x="156" y="388"/>
      <point x="136" y="292" type="curve" smooth="yes"/>
      <point x="125" y="242"/>
      <point x="122" y="172"/>
      <point x="138" y="59" type="curve"/>
      <point x="53" y="60" type="line" smooth="yes"/>
      <point x="40" y="60"/>
      <point x="29" y="51"/>
      <point x="26" y="38" type="curve" smooth="yes"/>
      <point x="23" y="24" type="line" smooth="yes"/>
      <point x="20" y="11"/>
      <point x="27" y="2"/>
      <point x="40" y="2" type="curve" smooth="yes"/>
      <point x="175" y="0" type="line" smooth="yes"/>
      <point x="188" y="0"/>
      <point x="199" y="9"/>
      <point x="202" y="22" type="curve" smooth="yes"/>
      <point x="205" y="36" type="line"/>
      <point x="182" y="119"/>
      <point x="179" y="206"/>
      <point x="198" y="297" type="curve" smooth="yes"/>
      <point x="218" y="391"/>
      <point x="256" y="469"/>
      <point x="297" y="531" type="curve"/>
      <point x="300" y="544"/>
      <point x="293" y="553"/>
      <point x="280" y="553" type="curve" smooth="yes"/>
      <point x="263" y="553" type="line" smooth="yes"/>
    </contour>
    <contour>
      <point x="364" y="260" type="move" name="center"/>
    </contour>
    <contour>
      <point x="420" y="520" type="move" name="top"/>
    </contour>
    <contour>
      <point x="-30" y="0" type="move" name="bottomleft"/>
    </contour>
    <contour>
      <point x="81" y="520" type="move" name="topleft"/>
    </contour>
    <contour>
      <point x="309" y="0" type="move" name="bottom"/>
    </contour>
  </outline>
</glyph>
